g Mesh1
# Vertex Positions: 8
v 2 1.625 1.5
v -2 1.625 1.5
v -2 3.125 0.5
v 2 3.125 0.5
v -2 1.625 -1.5
v 2 1.625 -1.5
v 2 3.125 -0.5
v -2 3.125 -0.5
# Vertex UVs: 8
vt 1 0
vt 0 0
vt 0 1
vt 1 1
vt -0.04 -0.01
vt -0.04 0.01
vt 0.04 0.01
vt 0.04 -0.01
# Vertex Normals: 3
vn 0 0.5547003 0.8320503
vn 0 0.5547003 -0.8320503
vn 0 1 0
# Faces: 3
f 4/4/1 3/3/1 2/2/1 1/1/1 
f 8/4/2 7/3/2 6/2/2 5/1/2 
f 8/8/3 3/7/3 4/6/3 7/5/3 


g Mesh2
# Vertex Positions: 8
v 2 -0.75 1.5
v -2 -0.75 1.5
v -1 0.75 0.5
v 2 0.75 0.5
v -2 -0.75 -1.5
v -1 0.75 -0.5
v 2 -0.75 -1.5
v 2 0.75 -0.5
# Vertex UVs: 11
vt 1.5 0
vt -0.5 0
vt 0 0.75
vt 1.5 0.75
vt 0.3333333 1
vt 0.6666667 0.9999999
vt 0.75 1
vt -0.03 -0.01
vt -0.03 0.01
vt 0.03 0.01
vt 0.03 -0.01
# Vertex Normals: 1
vn -0.8320503 0.5547003 0
# Faces: 4
f 12/12/1 11/11/1 10/10/1 9/9/1 
f 11/14/4 14/13/4 13/2/4 10/1/4 
f 14/15/2 16/3/2 15/2/2 13/1/2 
f 14/19/3 11/18/3 12/17/3 16/16/3 


