g Mesh1
# Vertex Positions: 8
v -2.5 3 1
v -6.5 3 1
v -5.5 4.5 0
v -3.5 4.5 0
v -2.5 3 -2
v -3.5 4.5 -1
v -6.5 3 -2
v -5.5 4.5 -1
# Vertex UVs: 14
vt 0.9999998 -2.773501
vt 0 -2.773501
vt 0.25 -1.773501
vt 0.7499999 -1.773501
vt 1 0
vt 0 3.30627E-08
vt 0.3333333 1
vt 0.6666667 0.9999999
vt 0.25 1
vt 0.75 0.9999999
vt 0.02 0.01
vt 0.02 -0.01
vt -0.02 -0.01
vt -0.02 0.01
# Vertex Normals: 5
vn 0 0.5547003 0.8320503
vn 0.8320503 0.5547003 0
vn -0.8320503 0.5547003 0
vn 0 0.5547003 -0.8320503
vn 0 1 0
# Faces: 5
f 4/4/1 3/3/1 2/2/1 1/1/1 
f 6/8/2 4/7/2 1/6/2 5/5/2 
f 3/8/3 8/7/3 7/6/3 2/5/3 
f 8/10/4 6/9/4 5/6/4 7/5/4 
f 8/14/5 3/13/5 4/12/5 6/11/5 


g Mesh2
# Vertex Positions: 30
v -0.375 0.34375 2
v -1.625 0.34375 2
v -1.625 0.5 2
v -0.375 0.5 2
v 0 0 1.5
v 0 0 2
v 0 0.5 2
v 0 0.5 1.5
v -2 0 2
v -2 0 1.5
v -2 0.5 1.5
v -2 0.5 2
v -1.625 0.34375 2.375
v -1.625 0.34375 2.75
v -1.625 0.5 2.75
v -1.625 0.5 2.375
v -1.625 0.15625 2.375
v -1.625 0.15625 2.75
v -2 0 2.75
v -2 0.5 2.75
v -0.375 0.34375 2.75
v -0.375 0.34375 2.375
v -0.375 0.5 2.375
v -0.375 0.5 2.75
v -0.375 0.15625 2.75
v -0.375 0.15625 2.375
v 0 0 2.75
v 0 0.5 2.75
v -0.375 0 2.75
v -1.625 0 2.75
# Vertex UVs: 31
vt 0.9375001 0.171875
vt 0.3125 0.171875
vt 0.3125 0.25
vt 0.9375 0.25
vt 1.5 0
vt 1.25 0
vt 1.25 0.25
vt 1.5 0.25
vt -0.25 0
vt -0.5 0
vt -0.5 0.25
vt -0.25 0.25
vt 1.3125 0.171875
vt 1.125 0.171875
vt 1.125 0.25
vt 1.3125 0.25
vt 1.3125 0.078125
vt 1.125 0.078125
vt 1.5 0.171875
vt -0.125 0
vt -0.125 0.25
vt -0.125 0.171875
vt -0.3125 0.171875
vt -0.3125 0.25
vt -0.125 0.078125
vt -0.3125 0.078125
vt -0.5 0.171875
vt 1.125 0
vt 0.3125001 0.078125
vt 0.3125001 0
vt -0.3124999 0
# Vertex Normals: 3
vn 0 0 1
vn 1 0 0
vn -1 0 0
# Faces: 13
f 12/18/6 11/17/6 10/16/6 9/15/6 
f 16/22/7 15/21/7 14/20/7 13/19/7 
f 20/26/8 19/25/8 18/24/8 17/23/8 
f 24/30/7 23/29/7 22/28/7 21/27/7 
f 22/28/7 26/32/7 25/31/7 21/27/7 
f 11/22/7 24/30/7 21/27/7 10/33/7 
f 28/35/8 20/25/8 17/24/8 27/34/8 
f 32/35/8 31/38/8 30/37/8 29/36/8 
f 30/37/8 34/40/8 33/39/8 29/36/8 
f 31/38/8 12/25/8 9/41/8 30/37/8 
f 15/22/7 36/29/7 35/42/7 14/19/7 
f 30/16/6 21/37/6 25/40/6 34/43/6 
f 33/43/6 26/40/6 38/45/6 37/44/6 


g Mesh3
# Vertex Positions: 0
# Vertex UVs: 24
vt 1.5 -0.1249999
vt 1.25 -0.1249999
vt 1.25 0.8750001
vt 1.5 0.8750001
vt 0.1250001 0
vt 0.125 0.25
vt 1.5 0.6875001
vt 1.125 0.6875001
vt 1.125 0.8750001
vt 0.2500001 0
vt 0.06250006 0
vt 0.0625 0.25
vt 0.25 0.25
vt 1.5 0.7500001
vt 1.125 0.7500001
vt 1.125 0.9375001
vt 1.5 0.9375001
vt 1.3125 0.6875002
vt 1.3125 1.3125
vt 1.5 1.3125
vt 1.5625 0.6875001
vt 1.375 0.6875001
vt 1.375 1.3125
vt 1.5625 1.3125
# Vertex Normals: 0
# Faces: 7
f 19/49/5 20/48/5 15/47/5 16/46/5 
f 23/17/6 28/51/6 27/50/6 38/44/6 
f 20/49/5 28/54/5 23/53/5 11/52/5 
f 36/58/6 32/57/6 37/56/6 35/55/6 
f 12/62/5 32/61/5 36/60/5 15/59/5 
f 10/65/5 21/64/5 30/63/5 9/52/5 
f 25/69/5 26/68/5 33/67/5 34/66/5 


g Mesh4
# Vertex Positions: 2
v -0.375 0 2.375
v -1.625 0 2.375
# Vertex UVs: 11
vt 1.5625 0
vt 1.375 0
vt 1.375 0.078125
vt 1.5625 0.078125
vt -0.375 0
vt -0.5625 0
vt -0.5625 0.078125
vt -0.375 0.078125
vt 1.3125 0
vt 0.6875001 0
vt 0.6875 0.078125
# Vertex Normals: 1
vn 0 0 -1
# Faces: 3
f 34/73/7 33/72/7 37/71/7 39/70/7 
f 26/77/8 25/76/8 40/75/8 38/74/8 
f 25/31/9 34/80/9 39/79/9 40/78/9 


g Mesh5
# Vertex Positions: 8
v 2 3 1
v -2 3 1
v -2 5.5 1
v 2 5.5 1
v 2 3 -2
v 2 5.5 -2
v -2 3 -2
v -2 5.5 -2
# Vertex UVs: 12
vt 4.487502 -0.4999999
vt 2.487501 -0.5
vt 2.487501 0.7499998
vt 4.487502 0.7499999
vt 2.49 -0.4999999
vt 0.9899999 -0.4999999
vt 0.9899999 0.7499996
vt 2.49 0.7499996
vt 4.492496 -0.5000001
vt 2.492498 -0.5000001
vt 2.492498 0.7499999
vt 4.492496 0.7499999
# Vertex Normals: 0
# Faces: 4
f 44/84/6 43/83/6 42/82/6 41/81/6 
f 46/88/7 44/87/7 41/86/7 45/85/7 
f 43/88/8 48/87/8 47/86/8 42/85/8 
f 48/92/9 46/91/9 45/90/9 47/89/9 


g Mesh6
# Vertex Positions: 8
v -7 3 1
v -11 3 1
v -11 4.5 0
v -7 4.5 0
v -11 3 -2
v -7 3 -2
v -7 4.5 -1
v -11 4.5 -1
# Vertex UVs: 6
vt 0 1
vt 1 1
vt -0.04 -0.01
vt -0.04 0.01
vt 0.04 0.01
vt 0.04 -0.01
# Vertex Normals: 0
# Faces: 3
f 52/94/1 51/93/1 50/6/1 49/5/1 
f 56/94/4 55/93/4 54/6/4 53/5/4 
f 56/98/5 51/97/5 52/96/5 55/95/5 


g Mesh7
# Vertex Positions: 8
v -11.5 3 1
v -15.5 3 1
v -14.5 4.5 0
v -11.5 4.5 0
v -15.5 3 -2
v -14.5 4.5 -1
v -11.5 3 -2
v -11.5 4.5 -1
# Vertex UVs: 4
vt -0.03 -0.01
vt -0.03 0.01
vt 0.03 0.01
vt 0.03 -0.01
# Vertex Normals: 0
# Faces: 4
f 60/94/1 59/9/1 58/6/1 57/5/1 
f 59/8/3 62/7/3 61/6/3 58/5/3 
f 62/10/4 64/93/4 63/6/4 61/5/4 
f 62/102/5 59/101/5 60/100/5 64/99/5 


g Mesh8
# Vertex Positions: 4
v 2 -2.384186E-07 0.9999995
v -2 -2.384186E-07 0.9999995
v 2 -2.384186E-07 -2
v -2 -2.384186E-07 -2
# Vertex UVs: 12
vt 1.0125 -0.7500002
vt -0.9875 -0.7500001
vt -0.9874998 0.7499999
vt 1.0125 0.7499999
vt 2.49 -0.7500002
vt 0.9900001 -0.7500002
vt 2.502501 -0.7500002
vt 1.0025 -0.7500002
vt 1.0025 0.7499999
vt 2.5025 0.7499999
vt 4.492498 -0.7500004
vt 2.492498 -0.7500002
# Vertex Normals: 0
# Faces: 4
f 41/106/6 42/105/6 66/104/6 65/103/6 
f 45/88/7 41/87/7 65/108/7 67/107/7 
f 42/112/8 47/111/8 68/110/8 66/109/8 
f 47/92/9 45/91/9 67/114/9 68/113/9 


g Mesh9
# Vertex Positions: 8
v 6.5 -2.384186E-07 1
v 2.5 -2.384186E-07 1
v 2.5 3 1
v 6.5 3 1
v 6.5 -2.384186E-07 -2
v 6.5 3 -2
v 2.5 -2.384186E-07 -2
v 2.5 3 -2
# Vertex UVs: 4
vt 6.489999 -0.7500002
vt 4.989999 -0.7500002
vt 4.989998 0.7499999
vt 6.489999 0.7499999
# Vertex Normals: 0
# Faces: 4
f 72/106/6 71/105/6 70/104/6 69/103/6 
f 74/88/7 72/87/7 69/108/7 73/107/7 
f 71/118/8 76/117/8 75/116/8 70/115/8 
f 76/92/9 74/91/9 73/114/9 75/113/9 


g Mesh10
# Vertex Positions: 8
v 11 -2.384186E-07 1
v 7 -2.384186E-07 1
v 7 3 1
v 11 3 1
v 11 -2.384186E-07 -2
v 11 3 -2
v 7 -2.384186E-07 -2
v 7 3 -2
# Vertex UVs: 0
# Vertex Normals: 0
# Faces: 4
f 80/106/6 79/105/6 78/104/6 77/103/6 
f 82/118/7 80/117/7 77/116/7 81/115/7 
f 79/88/8 84/87/8 83/108/8 78/107/8 
f 84/92/9 82/91/9 81/114/9 83/113/9 


g Mesh11
# Vertex Positions: 8
v 20 -2.384186E-07 1
v 16 -2.384186E-07 1
v 16 3 1
v 20 3 1
v 20 -2.384186E-07 -2
v 20 3 -2
v 16 -2.384186E-07 -2
v 16 3 -2
# Vertex UVs: 2
vt 6.492498 -0.7500004
vt 6.492496 0.7500001
# Vertex Normals: 0
# Faces: 4
f 88/106/6 87/105/6 86/104/6 85/103/6 
f 90/88/7 88/87/7 85/108/7 89/107/7 
f 87/118/8 92/117/8 91/116/8 86/115/8 
f 92/120/9 90/92/9 89/113/9 91/119/9 


g Mesh12
# Vertex Positions: 8
v 15.5 -2.384186E-07 1
v 11.5 -2.384186E-07 1
v 11.5 3 1
v 15.5 3 1
v 15.5 -2.384186E-07 -2
v 15.5 3 -2
v 11.5 -2.384186E-07 -2
v 11.5 3 -2
# Vertex UVs: 0
# Vertex Normals: 0
# Faces: 4
f 96/106/6 95/105/6 94/104/6 93/103/6 
f 98/118/7 96/117/7 93/116/7 97/115/7 
f 95/118/8 100/117/8 99/116/8 94/115/8 
f 100/92/9 98/91/9 97/114/9 99/113/9 


g Mesh13
# Vertex Positions: 8
v 24.5 -2.384186E-07 1
v 20.5 -2.384186E-07 1
v 20.5 3 1
v 24.5 3 1
v 24.5 -2.384186E-07 -2
v 24.5 3 -2
v 20.5 -2.384186E-07 -2
v 20.5 3 -2
# Vertex UVs: 0
# Vertex Normals: 0
# Faces: 4
f 104/106/6 103/105/6 102/104/6 101/103/6 
f 106/118/7 104/117/7 101/116/7 105/115/7 
f 103/88/8 108/87/8 107/108/8 102/107/8 
f 108/120/9 106/92/9 105/113/9 107/119/9 


g Mesh14
# Vertex Positions: 8
v 29 -2.384186E-07 1
v 25 -2.384186E-07 1
v 25 3 1
v 29 3 1
v 29 -2.384186E-07 -2
v 29 3 -2
v 25 -2.384186E-07 -2
v 25 3 -2
# Vertex UVs: 0
# Vertex Normals: 0
# Faces: 4
f 112/106/6 111/105/6 110/104/6 109/103/6 
f 114/118/7 112/117/7 109/116/7 113/115/7 
f 111/118/8 116/117/8 115/116/8 110/115/8 
f 116/120/9 114/92/9 113/113/9 115/119/9 


g Mesh15
# Vertex Positions: 4
v 2.5 5.5 1
v 6.5 5.5 1
v 6.5 5.5 -2
v 2.5 5.5 -2
# Vertex UVs: 2
vt 6.489999 -0.4999999
vt 4.989999 -0.4999999
# Vertex Normals: 0
# Faces: 4
f 118/84/6 117/83/6 71/82/6 72/81/6 
f 119/88/7 118/87/7 72/86/7 74/85/7 
f 117/118/8 120/117/8 76/122/8 71/121/8 
f 120/92/9 119/91/9 74/90/9 76/89/9 


g Mesh16
# Vertex Positions: 4
v 7 5.5 1
v 11 5.5 1
v 11 5.5 -2
v 7 5.5 -2
# Vertex UVs: 0
# Vertex Normals: 0
# Faces: 4
f 122/84/6 121/83/6 79/82/6 80/81/6 
f 123/118/7 122/117/7 80/122/7 82/121/7 
f 121/88/8 124/87/8 84/86/8 79/85/8 
f 124/92/9 123/91/9 82/90/9 84/89/9 


g Mesh17
# Vertex Positions: 4
v 11.5 5.5 1
v 15.5 5.5 1
v 15.5 5.5 -2
v 11.5 5.5 -2
# Vertex UVs: 0
# Vertex Normals: 0
# Faces: 4
f 126/84/6 125/83/6 95/82/6 96/81/6 
f 127/118/7 126/117/7 96/122/7 98/121/7 
f 125/118/8 128/117/8 100/122/8 95/121/8 
f 128/92/9 127/91/9 98/90/9 100/89/9 


g Mesh18
# Vertex Positions: 4
v 16 5.5 1
v 20 5.5 1
v 20 5.5 -2
v 16 5.5 -2
# Vertex UVs: 1
vt 6.492496 -0.5000001
# Vertex Normals: 0
# Faces: 4
f 130/84/6 129/83/6 87/82/6 88/81/6 
f 131/88/7 130/87/7 88/86/7 90/85/7 
f 129/118/8 132/117/8 92/122/8 87/121/8 
f 132/120/9 131/92/9 90/89/9 92/123/9 


g Mesh19
# Vertex Positions: 4
v 20.5 5.5 1
v 24.5 5.5 1
v 24.5 5.5 -2
v 20.5 5.5 -2
# Vertex UVs: 0
# Vertex Normals: 0
# Faces: 4
f 134/84/6 133/83/6 103/82/6 104/81/6 
f 135/118/7 134/117/7 104/122/7 106/121/7 
f 133/88/8 136/87/8 108/86/8 103/85/8 
f 136/120/9 135/92/9 106/89/9 108/123/9 


g Mesh20
# Vertex Positions: 4
v 25 5.5 1
v 29 5.5 1
v 29 5.5 -2
v 25 5.5 -2
# Vertex UVs: 0
# Vertex Normals: 0
# Faces: 4
f 138/84/6 137/83/6 111/82/6 112/81/6 
f 139/118/7 138/117/7 112/122/7 114/121/7 
f 137/118/8 140/117/8 116/122/8 111/121/8 
f 140/120/9 139/92/9 114/89/9 116/123/9 


