g Mesh1
# Vertex Positions: 8
v 2 0 1
v -2 0 1
v -2 3 1
v 2 3 1
v 2 0 -2
v 2 3 -2
v -2 0 -2
v -2 3 -2
# Vertex UVs: 10
vt 3 0
vt 1 0
vt 1 1.5
vt 3 1.5
vt 1.5 0
vt 0 0
vt 0 1.5
vt 1.5 1.5
vt -0.5 0
vt -0.5 1.5
# Vertex Normals: 4
vn 0 0 1
vn 1 0 0
vn -1 0 0
vn 0 0 -1
# Faces: 4
f 4/4/1 3/3/1 2/2/1 1/1/1 
f 6/8/2 4/7/2 1/6/2 5/5/2 
f 3/3/3 8/10/3 7/9/3 2/2/3 
f 8/8/4 6/10/4 5/9/4 7/5/4 


g Mesh2
# Vertex Positions: 34
v -1 4.5 0
v 1 4.5 0
v 1 4.5 -1
v -1 4.5 -1
v -1.625 0 2.75
v -2 0 2.75
v -2 0.5 2.75
v -1.625 0.5 2.75
v -1.625 0.5 2
v -2 0.5 2
v 2 5 1
v -2 5 1
v -1 6.5 0
v 2 6.5 0
v -2 5 -2
v -1 6.5 -1
v 2 5 -2
v 2 6.5 -1
v 2 7 1
v -2 7 1
v -2 8.5 0
v 2 8.5 0
v -2 7 -2
v 2 7 -2
v 2 8.5 -1
v -2 8.5 -1
v 22 8.5 0
v 18 8.5 0
v 18 7 1
v 22 7 1
v 22 7.5547 1.83205
v 18 7.5547 1.83205
v 18 9.054701 0.8320503
v 22 9.054701 0.8320503
# Vertex UVs: 43
vt 0.9999998 -2.773501
vt 0 -2.773501
vt 0.25 -1.773501
vt 0.7499999 -1.773501
vt 0.3333333 1
vt 0.6666667 0.9999999
vt 0.25 1
vt 0.75 0.9999999
vt 0.02 0.01
vt 0.02 -0.01
vt -0.02 -0.01
vt -0.02 0.01
vt -5.406248 -0.8461539
vt -5.499998 -0.8461539
vt -5.499998 -0.6153846
vt -5.406248 -0.6153846
vt 0.03 0.007500006
vt 0.015 0.007500006
vt 0.015 0.015
vt 0.03 0.015
vt 1 0.9999999
vt -0.5 0.75
vt 1 0.75
vt 0.01 -0.03
vt -0.01 -0.03
vt -0.01 0.03
vt 0.01 0.03
vt -4.499998 2.923077
vt -5.499998 2.923077
vt -5.499998 3.923077
vt -4.499998 3.923077
vt 0 1
vt 0.01 -0.04
vt -0.01 -0.04
vt -0.01 0.04
vt 0.01 0.04
vt 1 0.7903226
vt 0 0.7903226
vt -1.092785E-08 0.25
vt 1 0.25
vt -5.083988E-09 0.1163081
vt 0.2096774 0.1163081
vt 0.2096774 0
# Vertex Normals: 8
vn 0 0.5547003 0.8320503
vn 0.8320503 0.5547003 0
vn -0.8320503 0.5547003 0
vn 0 0.5547003 -0.8320503
vn 0 1 0
vn 0 -0.5547002 -0.8320503
vn 0 0.8320503 -0.5547002
vn 0 -0.8320503 0.5547001
# Faces: 20
f 10/14/5 9/13/5 3/12/5 4/11/5 
f 11/16/6 10/15/6 4/6/6 6/2/6 
f 9/16/7 12/15/7 8/6/7 3/2/7 
f 12/18/8 11/17/8 6/6/8 8/2/8 
f 12/22/9 9/21/9 10/20/9 11/19/9 
f 16/26/1 15/25/1 14/24/1 13/23/1 
f 18/30/9 15/29/9 16/28/9 17/27/9 
f 22/31/5 21/17/5 20/6/5 19/2/5 
f 21/16/7 24/15/7 23/6/7 20/2/7 
f 24/33/8 26/32/8 25/9/8 23/5/8 
f 24/37/9 21/36/9 22/35/9 26/34/9 
f 30/41/5 29/40/5 28/39/5 27/38/5 
f 34/31/8 33/42/8 32/6/8 31/2/8 
f 34/46/9 29/45/9 30/44/9 33/43/9 
f 38/48/10 37/47/10 36/31/10 35/42/10 
f 42/42/5 41/31/5 40/47/5 39/48/5 
f 35/6/11 36/2/11 41/50/11 42/49/11 
f 36/6/3 37/53/3 40/52/3 41/51/3 
f 37/6/12 38/2/12 39/50/12 40/49/12 
f 38/6/2 35/53/2 42/52/2 39/51/2 


g Mesh3
# Vertex Positions: 22
v -0.375 0.34375 2
v -1.625 0.34375 2
v -0.375 0.5 2
v 0 0 1.5
v 0 0 2
v 0 0.5 2
v 0 0.5 1.5
v -2 0 2
v -2 0 1.5
v -2 0.5 1.5
v -0.375 0.34375 2.75
v -0.375 0.34375 2.375
v -0.375 0.5 2.375
v -0.375 0.5 2.75
v -0.375 0.15625 2.75
v -0.375 0.15625 2.375
v 0 0 2.75
v 0 0.5 2.75
v -1.625 0.15625 2.375
v -1.625 0.34375 2.375
v -0.375 0 2.75
v -1.625 0.15625 2.75
# Vertex UVs: 23
vt 0.9375001 -2.601626
vt 0.3125 -2.601626
vt 0.3125 -2.523501
vt 0.9375 -2.523501
vt 1.25 0
vt 1.25 0.25
vt 1.5 0.25
vt -0.25 0
vt -0.5 0.25
vt -0.25 0.25
vt -0.125 0.171875
vt -0.3125 0.171875
vt -0.3125 0.25
vt -0.125 0.25
vt -0.125 0.078125
vt -0.3125 0.078125
vt -0.5 0.171875
vt 1.125 0
vt 1.125 0.25
vt 0.3125001 0.078125
vt 0.3125001 0.171875
vt 0.3125001 0
vt -0.3124999 0
# Vertex Normals: 0
# Faces: 9
f 45/57/1 17/56/1 44/55/1 43/54/1 
f 49/60/2 48/59/2 47/58/2 46/5/2 
f 18/63/3 52/62/3 51/9/3 50/61/3 
f 56/67/3 55/66/3 54/65/3 53/64/3 
f 54/65/3 58/69/3 57/68/3 53/64/3 
f 55/66/3 45/62/3 43/70/3 54/65/3 
f 48/60/2 60/72/2 59/71/2 47/5/2 
f 54/74/1 62/65/1 61/69/1 58/73/1 
f 57/73/1 64/69/1 13/76/1 63/75/1 


g Mesh4
# Vertex Positions: 0
# Vertex UVs: 20
vt 1.5 -0.1249999
vt 1.25 -0.1249999
vt 1.25 0.8750001
vt 1.5 0.8750001
vt 0.2500001 0
vt 0.06250006 0
vt 0.0625 0.25
vt 0.25 0.25
vt 1.5 0.7500001
vt 1.125 0.7500001
vt 1.125 0.9375001
vt 1.5 0.9375001
vt 1.5 0.6875001
vt 1.3125 0.6875002
vt 1.3125 1.3125
vt 1.5 1.3125
vt 1.5625 0.6875001
vt 1.375 0.6875001
vt 1.375 1.3125
vt 1.5625 1.3125
# Vertex Normals: 0
# Faces: 5
f 52/80/9 18/79/9 48/78/9 49/77/9 
f 60/84/1 56/83/1 63/82/1 59/81/1 
f 45/88/9 56/87/9 60/86/9 48/85/9 
f 44/92/9 62/91/9 54/90/9 43/89/9 
f 61/96/9 64/95/9 57/94/9 58/93/9 


