g Mesh1
# Vertex Positions: 8
v 2 -0.7500002 1.5
v -2 -0.7500002 1.5
v -2 0.75 0.5
v 2 0.75 0.5
v -2 -0.7500002 -1.5
v 2 -0.7500002 -1.5
v 2 0.75 -0.5
v -2 0.75 -0.5
# Vertex UVs: 12
vt -4.499998 2.923077
vt -5.499998 2.923077
vt -5.499998 3.923077
vt -4.499998 3.923077
vt 1 0
vt 0 0
vt 0 1
vt 1 1
vt 0.01 -0.04
vt -0.01 -0.04
vt -0.01 0.04
vt 0.01 0.04
# Vertex Normals: 3
vn 0 0.5547002 0.8320503
vn 0 0.5547003 -0.8320503
vn 0 1 0
# Faces: 3
f 4/4/1 3/3/1 2/2/1 1/1/1 
f 8/8/2 7/7/2 6/6/2 5/5/2 
f 8/12/3 3/11/3 4/10/3 7/9/3 


