g Mesh1
# Vertex Positions: 13
v 2 0.5 1
v 0 0.5 1
v 0 3 1
v 2 3 1
v 2 0 1
v 0 0 1
v -2 0.5 1
v -2 3 1
v 2 0 -2
v 2 3 -2
v -2 0 1
v -2 0 -2
v -2 3 -2
# Vertex UVs: 15
vt 3 0.25
vt 2 0.25
vt 2 1.5
vt 3 1.5
vt 3 0
vt 2 0
vt 1 0.25
vt 1 1.5
vt 1.5 0
vt 0 0
vt 0 1.5
vt 1.5 1.5
vt 1 0
vt -0.5 0
vt -0.5 1.5
# Vertex Normals: 4
vn 0 0 1
vn 1 0 0
vn -1 0 0
vn 0 0 -1
# Faces: 6
f 4/4/1 3/3/1 2/2/1 1/1/1 
f 2/2/1 6/6/1 5/5/1 1/1/1 
f 3/3/1 8/8/1 7/7/1 2/2/1 
f 10/12/2 4/11/2 5/10/2 9/9/2 
f 8/8/3 13/15/3 12/14/3 11/13/3 
f 13/12/4 10/15/4 9/14/4 12/9/4 


g Mesh2
# Vertex Positions: 4
v -1 4.5 0
v 1 4.5 0
v 1 4.5 -1
v -1 4.5 -1
# Vertex UVs: 8
vt 0.25 0.9999999
vt 0.7499999 0.9999995
vt 0.3333333 1
vt 0.6666667 0.9999999
vt 0.02 0.01
vt 0.02 -0.01
vt -0.02 -0.01
vt -0.02 0.01
# Vertex Normals: 5
vn 0 0.5547003 0.8320503
vn 0.8320503 0.5547003 0
vn -0.8320503 0.5547003 0
vn 0 0.5547003 -0.8320503
vn 0 1 0
# Faces: 5
f 15/17/5 14/16/5 8/10/5 4/13/5 
f 16/19/6 15/18/6 4/10/6 10/13/6 
f 14/19/7 17/18/7 13/10/7 8/13/7 
f 17/17/8 16/16/8 10/10/8 13/13/8 
f 17/23/9 14/22/9 15/21/9 16/20/9 


g Mesh3
# Vertex Positions: 26
v -0.375 0.34375 1.5
v -1.625 0.34375 1.5
v -1.625 0.5 1.5
v -0.375 0.5 1.5
v 0 0 1.5
v 0 0.5 1.5
v -2 0 1.5
v -2 0.5 1.5
v -1.625 0.34375 1.875
v -1.625 0.34375 2.25
v -1.625 0.5 2.25
v -1.625 0.5 1.875
v -1.625 0.15625 1.875
v -1.625 0.15625 2.25
v -2 0 2.25
v -2 0.5 2.25
v -0.375 0.34375 2.25
v -0.375 0.34375 1.875
v -0.375 0.5 1.875
v -0.375 0.5 2.25
v -0.375 0.15625 2.25
v -0.375 0.15625 1.875
v 0 0 2.25
v 0 0.5 2.25
v -0.375 0 2.25
v -1.625 0 2.25
# Vertex UVs: 29
vt 0.9375001 0.171875
vt 0.3125 0.171875
vt 0.3125 0.25
vt 0.9375 0.25
vt 1.25 0
vt 1.25 0.25
vt 1.5 0.25
vt -0.25 0
vt -0.5 0.25
vt -0.25 0.25
vt 1.3125 0.171875
vt 1.125 0.171875
vt 1.125 0.25
vt 1.3125 0.25
vt 1.3125 0.078125
vt 1.125 0.078125
vt 1.5 0.171875
vt -0.125 0
vt -0.125 0.25
vt -0.125 0.171875
vt -0.3125 0.171875
vt -0.3125 0.25
vt -0.125 0.078125
vt -0.3125 0.078125
vt -0.5 0.171875
vt 1.125 0
vt 0.3125001 0.078125
vt 0.3125001 0
vt -0.3124999 0
# Vertex Normals: 0
# Faces: 13
f 21/27/1 20/26/1 19/25/1 18/24/1 
f 2/30/2 23/29/2 22/28/2 6/9/2 
f 25/33/3 7/32/3 11/14/3 24/31/3 
f 29/37/2 28/36/2 27/35/2 26/34/2 
f 27/35/2 31/39/2 30/38/2 26/34/2 
f 20/30/2 29/37/2 26/34/2 19/40/2 
f 33/42/3 25/32/3 24/14/3 32/41/3 
f 37/42/3 36/45/3 35/44/3 34/43/3 
f 35/44/3 39/47/3 38/46/3 34/43/3 
f 36/45/3 21/32/3 18/48/3 35/44/3 
f 23/30/2 41/36/2 40/49/2 22/9/2 
f 35/25/1 26/44/1 30/47/1 39/50/1 
f 38/50/1 31/47/1 43/52/1 42/51/1 


g Mesh4
# Vertex Positions: 0
# Vertex UVs: 24
vt 1.5 -0.1249999
vt 1.25 -0.1249999
vt 1.25 0.8750001
vt 1.5 0.8750001
vt 0.1250001 0
vt 0.125 0.25
vt 1.5 0.6875001
vt 1.125 0.6875001
vt 1.125 0.8750001
vt 0.2500001 0
vt 0.06250006 0
vt 0.0625 0.25
vt 0.25 0.25
vt 1.5 0.7500001
vt 1.125 0.7500001
vt 1.125 0.9375001
vt 1.5 0.9375001
vt 1.3125 0.6875002
vt 1.3125 1.3125
vt 1.5 1.3125
vt 1.5625 0.6875001
vt 1.375 0.6875001
vt 1.375 1.3125
vt 1.5625 1.3125
# Vertex Normals: 0
# Faces: 7
f 7/56/9 25/55/9 23/54/9 2/53/9 
f 28/26/1 33/58/1 32/57/1 43/51/1 
f 25/56/9 33/61/9 28/60/9 20/59/9 
f 41/65/1 37/64/1 42/63/1 40/62/1 
f 21/69/9 37/68/9 41/67/9 23/66/9 
f 19/72/9 26/71/9 35/70/9 18/59/9 
f 30/76/9 31/75/9 38/74/9 39/73/9 


